<svg width="23" height="16" viewBox="0 0 23 16" fill="none" xmlns="http://www.w3.org/2000/svg">
<path d="M1 7C0.447715 7 0 7.44772 0 8C0 8.55228 0.447715 9 1 9V7ZM21.8371 8.70711C22.2276 8.31658 22.2276 7.68342 21.8371 7.29289L15.4731 0.928932C15.0826 0.538408 14.4495 0.538408 14.0589 0.928932C13.6684 1.31946 13.6684 1.95262 14.0589 2.34315L19.7158 8L14.0589 13.6569C13.6684 14.0474 13.6684 14.6805 14.0589 15.0711C14.4495 15.4616 15.0826 15.4616 15.4731 15.0711L21.8371 8.70711ZM1 9H21.13V7H1V9Z" fill="#232536"/>
</svg>
