<svg width="45" height="45" viewBox="0 0 45 45" fill="none" xmlns="http://www.w3.org/2000/svg">
<path fill-rule="evenodd" clip-rule="evenodd" d="M15.7697 1.0263C6.72539 4.18561 1.01374 11.6825 0.457242 21.125C-0.268733 33.4456 9.02958 43.7429 21.5479 44.4811C33.8667 45.2072 44.1624 35.9075 44.9005 23.3873C45.4658 13.7923 39.6482 4.84467 30.5578 1.32887C26.2932 -0.320481 19.994 -0.449671 15.7697 1.0263ZM18.0657 2.54306C10.0882 4.52315 4.22163 10.8253 2.70849 19.04C1.1871 27.2955 5.78235 36.3538 13.4563 40.228C25.8241 46.4724 40.111 39.2509 42.6493 25.4723C45.2006 11.6242 31.8072 -0.867837 18.0657 2.54306ZM29.4773 11.9088C23.8662 13.9195 7.98747 21.0939 7.61744 21.785C6.89972 23.126 7.03958 24.4446 7.98942 25.294C9.20585 26.3824 14.2838 27.7481 15.9067 27.4232C16.9701 27.2105 17.3484 27.3538 17.5703 28.0531C18.0686 29.6238 26.9527 35.3693 28.8829 35.3693C30.1834 35.3693 31.7358 33.5039 32.3195 31.2411C32.9435 28.8195 34.8189 16.4591 34.8189 14.7656C34.8189 12.3862 32.1413 10.9545 29.4773 11.9088ZM24.8641 16.1036C13.921 20.5781 9.03637 22.8482 9.21265 23.3771C9.45739 24.1104 12.4162 25.09 14.5183 25.1333C15.9742 25.1634 17.2814 24.514 21.4435 21.6947C24.2649 19.7831 26.7239 18.3688 26.907 18.5524C27.0906 18.7355 25.5585 20.5776 23.5029 22.6456C21.4474 24.7136 19.7701 26.7287 19.7764 27.1236C19.79 28.023 27.177 32.941 28.5139 32.941C29.8687 32.941 30.1931 31.8739 31.6246 22.701C32.5342 16.8748 32.7168 14.6349 32.322 14.1589C32.0272 13.8044 31.6494 13.5159 31.4819 13.5183C31.3139 13.5203 28.3361 14.684 24.8641 16.1036Z" fill="#402E0C"/>
</svg>
