<svg width="46" height="45" viewBox="0 0 46 45" fill="none" xmlns="http://www.w3.org/2000/svg">
<path fill-rule="evenodd" clip-rule="evenodd" d="M17.5244 0.594096C7.06349 3.53562 0.229998 13.2472 1.05222 24.0038C1.72831 32.8553 7.7425 40.6723 16.1274 43.6002C19.9389 44.9312 27.5002 44.7985 31.2216 43.3353C37.3093 40.9417 42.4623 35.607 44.5871 29.499C45.8126 25.9764 45.8126 18.616 44.5871 15.0934C42.455 8.96347 37.245 3.58392 31.2216 1.29276C27.5703 -0.0962771 21.1435 -0.424144 17.5244 0.594096ZM18.691 2.49787C12.743 3.98839 7.52234 8.08477 5.13897 13.1316C-0.833336 25.7764 6.35428 39.8258 20.0929 42.3609C33.397 44.8165 45.799 32.3757 43.345 19.0361C41.1628 7.17094 29.979 -0.330956 18.691 2.49787ZM8.07617 15.7711C7.43661 16.4112 7.72399 17.4821 9.47754 20.994C13.3782 28.8072 17.4494 32.2464 22.4572 31.958C24.8601 31.8195 25.033 31.7238 25.1791 30.4514L25.335 29.0926L27.3453 30.5734C29.1051 31.8697 29.7564 32.0541 32.5718 32.0541C37.6479 32.0541 38.3274 30.425 34.7024 26.9463L32.4476 24.782L33.7516 23.23C35.5835 21.0491 37.0424 18.0218 36.8641 16.7698C36.7316 15.8374 36.3644 15.6916 33.8115 15.5603C29.4787 15.3373 29.0145 15.5696 27.7647 18.5901C27.1577 20.0568 26.3477 21.517 25.9643 21.8361C25.372 22.3284 25.2668 21.9674 25.2668 19.4459C25.2668 15.978 24.7339 15.4657 21.1265 15.4657C19.8858 15.4657 18.4465 15.693 17.9282 15.9706C16.8108 16.5698 16.6803 18.171 17.7168 18.5697C18.1484 18.7351 18.4474 19.4679 18.4474 20.3583C18.4474 22.4231 17.6944 21.8186 16.0923 18.4667L14.7747 15.7096L11.5979 15.5676C9.85017 15.4896 8.26565 15.5813 8.07617 15.7711ZM10.1668 17.7427C10.1668 18.3852 13.7192 24.5283 15.105 26.2828C16.6384 28.2241 19.9823 30.1026 21.9039 30.1026C22.7909 30.1026 23.2493 29.72 23.6565 28.6389C24.3589 26.7746 25.3896 26.7746 28.1894 28.6389C29.7598 29.6844 30.9683 30.0991 32.4515 30.1006C33.5903 30.1016 34.5217 29.9196 34.5217 29.6961C34.5217 29.4727 33.6449 28.5842 32.5733 27.7216C30.1855 25.7998 30.0905 24.5654 32.1334 21.9976C32.9634 20.954 33.9557 19.4971 34.338 18.759L35.0336 17.4172H32.9065C30.8085 17.4172 30.7593 17.4563 29.3536 20.209C27.7486 23.3525 25.8065 24.826 24.4188 23.9531C23.7836 23.554 23.5245 22.6387 23.4168 20.4159L23.2722 17.4172L21.712 17.4168L20.1523 17.4158L20.3203 20.1163C20.4991 22.9973 19.9248 24.2478 18.4231 24.2478C17.33 24.2478 14.7328 21.1565 14.0275 19.0161C13.5692 17.6236 13.2857 17.4172 11.8336 17.4172C10.9169 17.4172 10.1668 17.5636 10.1668 17.7427Z" fill="#402E0C"/>
</svg>
